<svg id="Component_6_1" data-name="Component 6 – 1" xmlns="http://www.w3.org/2000/svg" width="391" height="170.585" viewBox="0 0 391 170.585">
  <g id="Group_58" data-name="Group 58" transform="translate(-77.933 -127.648)" opacity="0.15">
    <g id="Group_33" data-name="Group 33" transform="translate(318.603 276.778)">
      <line id="Line_19" data-name="Line 19" x2="26.288" transform="translate(0.119 4.142)" fill="none" stroke="#002581" stroke-miterlimit="10" stroke-width="0.75"/>
      <g id="Group_32" data-name="Group 32">
        <rect id="Rectangle_191" data-name="Rectangle 191" width="26.407" height="6.123" transform="translate(0 0.08)" fill="none" stroke="#002581" stroke-miterlimit="10" stroke-width="0.75"/>
        <line id="Line_20" data-name="Line 20" y2="6.055" transform="translate(13.188 0.088)" fill="none" stroke="#002581" stroke-miterlimit="10" stroke-width="0.75"/>
        <line id="Line_21" data-name="Line 21" y2="6.055" transform="translate(14.496 0.092)" fill="none" stroke="#002581" stroke-miterlimit="10" stroke-width="0.75"/>
        <line id="Line_22" data-name="Line 22" y2="6.055" transform="translate(15.813 0.199)" fill="none" stroke="#002581" stroke-miterlimit="10" stroke-width="0.75"/>
        <line id="Line_23" data-name="Line 23" y2="6.055" transform="translate(17.152 0.219)" fill="none" stroke="#002581" stroke-miterlimit="10" stroke-width="0.75"/>
        <line id="Line_24" data-name="Line 24" y2="6.055" transform="translate(18.483 0.199)" fill="none" stroke="#002581" stroke-miterlimit="10" stroke-width="0.75"/>
        <line id="Line_25" data-name="Line 25" y2="6.065" transform="translate(6.598 0.08)" fill="none" stroke="#002581" stroke-miterlimit="10" stroke-width="0.75"/>
        <line id="Line_26" data-name="Line 26" y2="6.065" transform="translate(7.912)" fill="none" stroke="#002581" stroke-miterlimit="10" stroke-width="0.75"/>
        <line id="Line_27" data-name="Line 27" y2="6.065" transform="translate(9.227 0.003)" fill="none" stroke="#002581" stroke-miterlimit="10" stroke-width="0.75"/>
        <line id="Line_28" data-name="Line 28" y2="6.065" transform="translate(10.549 0.109)" fill="none" stroke="#002581" stroke-miterlimit="10" stroke-width="0.75"/>
        <line id="Line_29" data-name="Line 29" y2="6.065" transform="translate(11.87 0.153)" fill="none" stroke="#002581" stroke-miterlimit="10" stroke-width="0.75"/>
        <line id="Line_30" data-name="Line 30" y2="5.944" transform="translate(19.774 0.199)" fill="none" stroke="#002581" stroke-miterlimit="10" stroke-width="0.75"/>
        <line id="Line_31" data-name="Line 31" y2="5.944" transform="translate(22.4 0.116)" fill="none" stroke="#002581" stroke-miterlimit="10" stroke-width="0.75"/>
        <line id="Line_32" data-name="Line 32" y2="5.944" transform="translate(23.722 0.135)" fill="none" stroke="#002581" stroke-miterlimit="10" stroke-width="0.75"/>
        <line id="Line_33" data-name="Line 33" y2="5.944" transform="translate(25.044 0.116)" fill="none" stroke="#002581" stroke-miterlimit="10" stroke-width="0.75"/>
        <line id="Line_34" data-name="Line 34" y2="5.944" transform="translate(21.093 0.206)" fill="none" stroke="#002581" stroke-miterlimit="10" stroke-width="0.75"/>
        <line id="Line_35" data-name="Line 35" y2="5.928" transform="translate(5.286 0.178)" fill="none" stroke="#002581" stroke-miterlimit="10" stroke-width="0.75"/>
        <line id="Line_36" data-name="Line 36" y2="5.928" transform="translate(3.973 0.144)" fill="none" stroke="#002581" stroke-miterlimit="10" stroke-width="0.75"/>
        <line id="Line_37" data-name="Line 37" y2="6.017" transform="translate(2.658 0.187)" fill="none" stroke="#002581" stroke-miterlimit="10" stroke-width="0.75"/>
        <line id="Line_38" data-name="Line 38" y2="5.928" transform="translate(1.336 0.143)" fill="none" stroke="#002581" stroke-miterlimit="10" stroke-width="0.75"/>
      </g>
    </g>
    <g id="Group_35" data-name="Group 35" transform="translate(318.56 266.999)">
      <line id="Line_39" data-name="Line 39" x2="26.374" transform="translate(0.119 4.142)" fill="none" stroke="#002581" stroke-miterlimit="10" stroke-width="0.75"/>
      <g id="Group_34" data-name="Group 34" transform="translate(0 0)">
        <rect id="Rectangle_192" data-name="Rectangle 192" width="26.493" height="6.123" transform="translate(0 0.08)" fill="none" stroke="#002581" stroke-miterlimit="10" stroke-width="0.75"/>
        <line id="Line_40" data-name="Line 40" y2="6.055" transform="translate(13.231 0.088)" fill="none" stroke="#002581" stroke-miterlimit="10" stroke-width="0.75"/>
        <line id="Line_41" data-name="Line 41" y2="6.055" transform="translate(14.543 0.092)" fill="none" stroke="#002581" stroke-miterlimit="10" stroke-width="0.75"/>
        <line id="Line_42" data-name="Line 42" y2="6.055" transform="translate(15.864 0.2)" fill="none" stroke="#002581" stroke-miterlimit="10" stroke-width="0.75"/>
        <line id="Line_43" data-name="Line 43" y2="6.055" transform="translate(17.208 0.219)" fill="none" stroke="#002581" stroke-miterlimit="10" stroke-width="0.75"/>
        <line id="Line_44" data-name="Line 44" y2="6.055" transform="translate(18.543 0.2)" fill="none" stroke="#002581" stroke-miterlimit="10" stroke-width="0.75"/>
        <line id="Line_45" data-name="Line 45" y2="6.065" transform="translate(6.619 0.08)" fill="none" stroke="#002581" stroke-miterlimit="10" stroke-width="0.75"/>
        <line id="Line_46" data-name="Line 46" y2="6.065" transform="translate(7.938)" fill="none" stroke="#002581" stroke-miterlimit="10" stroke-width="0.75"/>
        <line id="Line_47" data-name="Line 47" y2="6.065" transform="translate(9.257 0.003)" fill="none" stroke="#002581" stroke-miterlimit="10" stroke-width="0.75"/>
        <line id="Line_48" data-name="Line 48" y2="6.065" transform="translate(10.583 0.109)" fill="none" stroke="#002581" stroke-miterlimit="10" stroke-width="0.75"/>
        <line id="Line_49" data-name="Line 49" y2="6.065" transform="translate(11.909 0.153)" fill="none" stroke="#002581" stroke-miterlimit="10" stroke-width="0.75"/>
        <line id="Line_50" data-name="Line 50" y2="5.944" transform="translate(19.839 0.2)" fill="none" stroke="#002581" stroke-miterlimit="10" stroke-width="0.75"/>
        <line id="Line_51" data-name="Line 51" y2="5.944" transform="translate(22.474 0.116)" fill="none" stroke="#002581" stroke-miterlimit="10" stroke-width="0.75"/>
        <line id="Line_52" data-name="Line 52" y2="5.944" transform="translate(23.8 0.135)" fill="none" stroke="#002581" stroke-miterlimit="10" stroke-width="0.75"/>
        <line id="Line_53" data-name="Line 53" y2="5.944" transform="translate(25.126 0.116)" fill="none" stroke="#002581" stroke-miterlimit="10" stroke-width="0.75"/>
        <line id="Line_54" data-name="Line 54" y2="5.944" transform="translate(21.162 0.206)" fill="none" stroke="#002581" stroke-miterlimit="10" stroke-width="0.75"/>
        <line id="Line_55" data-name="Line 55" y2="5.928" transform="translate(5.303 0.178)" fill="none" stroke="#002581" stroke-miterlimit="10" stroke-width="0.75"/>
        <line id="Line_56" data-name="Line 56" y2="5.928" transform="translate(3.986 0.144)" fill="none" stroke="#002581" stroke-miterlimit="10" stroke-width="0.75"/>
        <line id="Line_57" data-name="Line 57" y2="6.017" transform="translate(2.667 0.187)" fill="none" stroke="#002581" stroke-miterlimit="10" stroke-width="0.75"/>
        <line id="Line_58" data-name="Line 58" y2="5.928" transform="translate(1.34 0.143)" fill="none" stroke="#002581" stroke-miterlimit="10" stroke-width="0.75"/>
      </g>
    </g>
    <g id="Group_37" data-name="Group 37" transform="translate(318.4 256.523)">
      <line id="Line_59" data-name="Line 59" x2="26.691" transform="translate(0.12 4.142)" fill="none" stroke="#002581" stroke-miterlimit="10" stroke-width="0.75"/>
      <g id="Group_36" data-name="Group 36">
        <rect id="Rectangle_193" data-name="Rectangle 193" width="26.811" height="6.123" transform="translate(0 0.08)" fill="none" stroke="#002581" stroke-miterlimit="10" stroke-width="0.75"/>
        <line id="Line_60" data-name="Line 60" y2="6.055" transform="translate(13.39 0.088)" fill="none" stroke="#002581" stroke-miterlimit="10" stroke-width="0.75"/>
        <line id="Line_61" data-name="Line 61" y2="6.055" transform="translate(14.718 0.092)" fill="none" stroke="#002581" stroke-miterlimit="10" stroke-width="0.75"/>
        <line id="Line_62" data-name="Line 62" y2="6.055" transform="translate(16.055 0.199)" fill="none" stroke="#002581" stroke-miterlimit="10" stroke-width="0.75"/>
        <line id="Line_63" data-name="Line 63" y2="6.055" transform="translate(17.415 0.219)" fill="none" stroke="#002581" stroke-miterlimit="10" stroke-width="0.75"/>
        <line id="Line_64" data-name="Line 64" y2="6.055" transform="translate(18.766 0.199)" fill="none" stroke="#002581" stroke-miterlimit="10" stroke-width="0.75"/>
        <line id="Line_65" data-name="Line 65" y2="6.065" transform="translate(6.699 0.08)" fill="none" stroke="#002581" stroke-miterlimit="10" stroke-width="0.75"/>
        <line id="Line_66" data-name="Line 66" y2="6.065" transform="translate(8.034)" fill="none" stroke="#002581" stroke-miterlimit="10" stroke-width="0.75"/>
        <line id="Line_67" data-name="Line 67" y2="6.065" transform="translate(9.368 0.003)" fill="none" stroke="#002581" stroke-miterlimit="10" stroke-width="0.75"/>
        <line id="Line_68" data-name="Line 68" y2="6.065" transform="translate(10.71 0.109)" fill="none" stroke="#002581" stroke-miterlimit="10" stroke-width="0.75"/>
        <line id="Line_69" data-name="Line 69" y2="6.065" transform="translate(12.052 0.153)" fill="none" stroke="#002581" stroke-miterlimit="10" stroke-width="0.75"/>
        <line id="Line_70" data-name="Line 70" y2="5.944" transform="translate(20.077 0.199)" fill="none" stroke="#002581" stroke-miterlimit="10" stroke-width="0.75"/>
        <line id="Line_71" data-name="Line 71" y2="5.944" transform="translate(22.744 0.116)" fill="none" stroke="#002581" stroke-miterlimit="10" stroke-width="0.75"/>
        <line id="Line_72" data-name="Line 72" y2="5.944" transform="translate(24.086 0.135)" fill="none" stroke="#002581" stroke-miterlimit="10" stroke-width="0.75"/>
        <line id="Line_73" data-name="Line 73" y2="5.944" transform="translate(25.428 0.116)" fill="none" stroke="#002581" stroke-miterlimit="10" stroke-width="0.75"/>
        <line id="Line_74" data-name="Line 74" y2="5.944" transform="translate(21.416 0.206)" fill="none" stroke="#002581" stroke-miterlimit="10" stroke-width="0.75"/>
        <line id="Line_75" data-name="Line 75" y2="5.928" transform="translate(5.367 0.178)" fill="none" stroke="#002581" stroke-miterlimit="10" stroke-width="0.75"/>
        <line id="Line_76" data-name="Line 76" y2="5.928" transform="translate(4.034 0.144)" fill="none" stroke="#002581" stroke-miterlimit="10" stroke-width="0.75"/>
        <line id="Line_77" data-name="Line 77" y2="6.017" transform="translate(2.699 0.187)" fill="none" stroke="#002581" stroke-miterlimit="10" stroke-width="0.75"/>
        <line id="Line_78" data-name="Line 78" y2="5.928" transform="translate(1.356 0.143)" fill="none" stroke="#002581" stroke-miterlimit="10" stroke-width="0.75"/>
      </g>
    </g>
    <path id="Path_49" data-name="Path 49" d="M529.947,334.7" transform="translate(-243.906 -111.726)" fill="none" stroke="#fe0" stroke-miterlimit="10" stroke-width="2" opacity="0.83"/>
    <path id="Path_50" data-name="Path 50" d="M896.23,229.583l-.139,117.562-23.682.611-.739-117.483Z" transform="translate(-428.299 -55.004)" fill="none" stroke="#002581" stroke-miterlimit="10" stroke-width="2"/>
    <path id="Path_51" data-name="Path 51" d="M767.167,348.207,677.084,341.8l.606-59.1.2-.12,88.346-52.931.431.719-88.145,52.811-.593,57.843,89.3,6.353Z" transform="translate(-323.301 -55.037)" fill="#002581"/>
    <g id="Group_38" data-name="Group 38" transform="translate(297.481 234.045)">
      <rect id="Rectangle_194" data-name="Rectangle 194" width="11.483" height="3.84" transform="translate(0.107 0)" fill="#002581"/>
      <rect id="Rectangle_195" data-name="Rectangle 195" width="11.483" height="3.84" transform="translate(0.107 7.65)" fill="#002581"/>
      <rect id="Rectangle_196" data-name="Rectangle 196" width="11.483" height="3.84" transform="translate(0 15.298)" fill="#002581"/>
      <rect id="Rectangle_197" data-name="Rectangle 197" width="11.483" height="3.84" transform="translate(0 23.029)" fill="#002581"/>
      <rect id="Rectangle_198" data-name="Rectangle 198" width="11.483" height="3.84" transform="translate(0.107 30.677)" fill="#002581"/>
      <rect id="Rectangle_199" data-name="Rectangle 199" width="11.483" height="3.84" transform="translate(0.107 38.324)" fill="#002581"/>
      <rect id="Rectangle_200" data-name="Rectangle 200" width="11.483" height="3.84" transform="translate(0.107 45.972)" fill="#002581"/>
    </g>
    <path id="Path_52" data-name="Path 52" d="M144.668,243.029l-.343-9.15a.213.213,0,0,1,.214-.22h8.775a.213.213,0,0,1,.214.212v9.158a.212.212,0,0,0,.14.2l14.214,5.178a.212.212,0,0,1,.14.2v6.816a.214.214,0,0,1-.334.176l-14.351-9.625a.226.226,0,0,0-.054-.026l-8.469-2.724A.213.213,0,0,1,144.668,243.029Z" transform="translate(-35.825 -57.203)" fill="#96999c" opacity="0.83"/>
    <path id="Path_53" data-name="Path 53" d="M145.389,321.895l-.34-7.808a.2.2,0,0,1,.212-.188h8.691a.2.2,0,0,1,.212.181v7.815a.185.185,0,0,0,.139.17l14.079,4.418a.185.185,0,0,1,.139.17v5.817a.215.215,0,0,1-.331.15l-14.213-8.214a.238.238,0,0,0-.053-.022l-8.388-2.325A.187.187,0,0,1,145.389,321.895Z" transform="translate(-36.215 -100.501)" fill="#818386" opacity="0.83"/>
    <path id="Path_54" data-name="Path 54" d="M145.39,364.062l-.352-6.116c0-.08.095-.147.22-.147h9c.121,0,.22.063.22.142v6.121c0,.059.057.113.144.133l14.583,3.462c.087.02.144.074.144.133v4.557c0,.114-.2.181-.343.117l-14.723-6.434a.257.257,0,0,0-.055-.018l-8.689-1.821C145.454,364.174,145.393,364.122,145.39,364.062Z" transform="translate(-36.209 -124.189)" fill="#818386" opacity="0.83"/>
    <path id="Path_55" data-name="Path 55" d="M916.627,348.171l-6.956.225-.109-10.078,6.866-.2v-6.838H909.47V321.169h6.958v-7.681H909.47v-9.118h6.6V295.9h-6.6v-8.474h6.958l-.132-7.3h-6.734l-.092-8.969h6.345l-.13-9.1H909.47v-7.136h6.958V245.6H909.47v-7.929h6.958" transform="translate(-448.695 -59.369)" fill="#002581"/>
    <path id="Path_56" data-name="Path 56" d="M553.249,346.817" transform="translate(-256.479 -118.263)" fill="none" stroke="#fe0" stroke-miterlimit="10" stroke-width="2" opacity="0.83"/>
    <path id="Path_57" data-name="Path 57" d="M196.844,221.273s20.946-9.966,31.46,14.494l.295,106.957" transform="translate(-64.164 -49.436)" fill="none" stroke="#002581" stroke-miterlimit="10" stroke-width="2"/>
    <path id="Path_58" data-name="Path 58" d="M265.516,249.988s15.7-13.314,24,8.436l.429,97.381" transform="translate(-101.219 -63.838)" fill="none" stroke="#002581" stroke-miterlimit="10" stroke-width="2"/>
    <path id="Path_59" data-name="Path 59" d="M317.569,268.516s11.935-11.452,19.239,7.714l.569,89.433" transform="translate(-129.307 -74.181)" fill="none" stroke="#002581" stroke-miterlimit="10" stroke-width="2"/>
    <path id="Path_60" data-name="Path 60" d="M359.357,285.894s10.38-9.56,16.791,6.261v82.163" transform="translate(-151.856 -83.845)" fill="none" stroke="#002581" stroke-miterlimit="10" stroke-width="2"/>
    <path id="Path_61" data-name="Path 61" d="M395.827,299.331s9.369-9.543,13.449,5.4l.226,76.081" transform="translate(-171.535 -91.02)" fill="none" stroke="#002581" stroke-miterlimit="10" stroke-width="2"/>
    <path id="Path_62" data-name="Path 62" d="M425.158,310.593s6.068-9.416,11.251,3.217l1.085,72.1" transform="translate(-187.362 -96.897)" fill="none" stroke="#002581" stroke-miterlimit="10" stroke-width="2"/>
    <path id="Path_63" data-name="Path 63" d="M449.034,318.149s8.027-7.695,11.406,2.908l.607,68.787" transform="translate(-200.245 -101.338)" fill="none" stroke="#002581" stroke-miterlimit="10" stroke-width="2"/>
    <path id="Path_64" data-name="Path 64" d="M473.513,326.833s8.3-5.62,10.388,3.537l.492,64.3" transform="translate(-213.454 -106.559)" fill="none" stroke="#002581" stroke-miterlimit="10" stroke-width="2"/>
    <path id="Path_65" data-name="Path 65" d="M496.351,335.883s6.5-4.521,8.921,3.454l.389,60.061" transform="translate(-225.777 -111.675)" fill="none" stroke="#002581" stroke-miterlimit="10" stroke-width="2"/>
    <path id="Path_66" data-name="Path 66" d="M515.966,344.813s5.992-3.139,8.033,4.17l.328,55.045" transform="translate(-236.361 -116.82)" fill="none" stroke="#002581" stroke-miterlimit="10" stroke-width="2"/>
    <path id="Path_67" data-name="Path 67" d="M533.416,353.261s4.192-4.795,7.047,1.758" transform="translate(-245.778 -120.827)" fill="none" stroke="#002581" stroke-miterlimit="10" stroke-width="2" opacity="0.83"/>
    <g id="Group_40" data-name="Group 40" transform="translate(318.549 246.413)">
      <line id="Line_79" data-name="Line 79" x2="26.396" transform="translate(0.119 4.142)" fill="none" stroke="#002581" stroke-miterlimit="10" stroke-width="0.75"/>
      <g id="Group_39" data-name="Group 39" transform="translate(0 0)">
        <rect id="Rectangle_201" data-name="Rectangle 201" width="26.515" height="6.123" transform="translate(0 0.08)" fill="none" stroke="#002581" stroke-miterlimit="10" stroke-width="0.75"/>
        <line id="Line_80" data-name="Line 80" y2="6.055" transform="translate(13.242 0.088)" fill="none" stroke="#002581" stroke-miterlimit="10" stroke-width="0.75"/>
        <line id="Line_81" data-name="Line 81" y2="6.055" transform="translate(14.555 0.092)" fill="none" stroke="#002581" stroke-miterlimit="10" stroke-width="0.75"/>
        <line id="Line_82" data-name="Line 82" y2="6.055" transform="translate(15.878 0.199)" fill="none" stroke="#002581" stroke-miterlimit="10" stroke-width="0.75"/>
        <line id="Line_83" data-name="Line 83" y2="6.055" transform="translate(17.223 0.219)" fill="none" stroke="#002581" stroke-miterlimit="10" stroke-width="0.75"/>
        <line id="Line_84" data-name="Line 84" y2="6.055" transform="translate(18.559 0.199)" fill="none" stroke="#002581" stroke-miterlimit="10" stroke-width="0.75"/>
        <line id="Line_85" data-name="Line 85" y2="6.065" transform="translate(6.625 0.08)" fill="none" stroke="#002581" stroke-miterlimit="10" stroke-width="0.75"/>
        <line id="Line_86" data-name="Line 86" y2="6.065" transform="translate(7.945)" fill="none" stroke="#002581" stroke-miterlimit="10" stroke-width="0.75"/>
        <line id="Line_87" data-name="Line 87" y2="6.065" transform="translate(9.265 0.003)" fill="none" stroke="#002581" stroke-miterlimit="10" stroke-width="0.75"/>
        <line id="Line_88" data-name="Line 88" y2="6.065" transform="translate(10.592 0.109)" fill="none" stroke="#002581" stroke-miterlimit="10" stroke-width="0.75"/>
        <line id="Line_89" data-name="Line 89" y2="6.065" transform="translate(11.919 0.153)" fill="none" stroke="#002581" stroke-miterlimit="10" stroke-width="0.75"/>
        <line id="Line_90" data-name="Line 90" y2="5.944" transform="translate(19.855 0.199)" fill="none" stroke="#002581" stroke-miterlimit="10" stroke-width="0.75"/>
        <line id="Line_91" data-name="Line 91" y2="5.944" transform="translate(22.492 0.116)" fill="none" stroke="#002581" stroke-miterlimit="10" stroke-width="0.75"/>
        <line id="Line_92" data-name="Line 92" y2="5.944" transform="translate(23.82 0.135)" fill="none" stroke="#002581" stroke-miterlimit="10" stroke-width="0.75"/>
        <line id="Line_93" data-name="Line 93" y2="5.944" transform="translate(25.147 0.116)" fill="none" stroke="#002581" stroke-miterlimit="10" stroke-width="0.75"/>
        <line id="Line_94" data-name="Line 94" y2="5.944" transform="translate(21.18 0.206)" fill="none" stroke="#002581" stroke-miterlimit="10" stroke-width="0.75"/>
        <line id="Line_95" data-name="Line 95" y2="5.928" transform="translate(5.308 0.178)" fill="none" stroke="#002581" stroke-miterlimit="10" stroke-width="0.75"/>
        <line id="Line_96" data-name="Line 96" y2="5.928" transform="translate(3.99 0.144)" fill="none" stroke="#002581" stroke-miterlimit="10" stroke-width="0.75"/>
        <line id="Line_97" data-name="Line 97" y2="6.017" transform="translate(2.669 0.187)" fill="none" stroke="#002581" stroke-miterlimit="10" stroke-width="0.75"/>
        <line id="Line_98" data-name="Line 98" y2="5.928" transform="translate(1.341 0.143)" fill="none" stroke="#002581" stroke-miterlimit="10" stroke-width="0.75"/>
      </g>
    </g>
    <g id="Group_42" data-name="Group 42" transform="translate(318.625 236.308)">
      <line id="Line_99" data-name="Line 99" x2="26.243" transform="translate(0.118 4.142)" fill="none" stroke="#002581" stroke-miterlimit="10" stroke-width="0.75"/>
      <g id="Group_41" data-name="Group 41">
        <rect id="Rectangle_202" data-name="Rectangle 202" width="26.362" height="6.123" transform="translate(0 0.08)" fill="none" stroke="#002581" stroke-miterlimit="10" stroke-width="0.75"/>
        <line id="Line_100" data-name="Line 100" y2="6.055" transform="translate(13.165 0.088)" fill="none" stroke="#002581" stroke-miterlimit="10" stroke-width="0.75"/>
        <line id="Line_101" data-name="Line 101" y2="6.055" transform="translate(14.471 0.092)" fill="none" stroke="#002581" stroke-miterlimit="10" stroke-width="0.75"/>
        <line id="Line_102" data-name="Line 102" y2="6.055" transform="translate(15.786 0.199)" fill="none" stroke="#002581" stroke-miterlimit="10" stroke-width="0.75"/>
        <line id="Line_103" data-name="Line 103" y2="6.055" transform="translate(17.123 0.219)" fill="none" stroke="#002581" stroke-miterlimit="10" stroke-width="0.75"/>
        <line id="Line_104" data-name="Line 104" y2="6.055" transform="translate(18.451 0.199)" fill="none" stroke="#002581" stroke-miterlimit="10" stroke-width="0.75"/>
        <line id="Line_105" data-name="Line 105" y2="6.065" transform="translate(6.586 0.08)" fill="none" stroke="#002581" stroke-miterlimit="10" stroke-width="0.75"/>
        <line id="Line_106" data-name="Line 106" y2="6.065" transform="translate(7.899)" fill="none" stroke="#002581" stroke-miterlimit="10" stroke-width="0.75"/>
        <line id="Line_107" data-name="Line 107" y2="6.065" transform="translate(9.211 0.003)" fill="none" stroke="#002581" stroke-miterlimit="10" stroke-width="0.75"/>
        <line id="Line_108" data-name="Line 108" y2="6.065" transform="translate(10.531 0.109)" fill="none" stroke="#002581" stroke-miterlimit="10" stroke-width="0.75"/>
        <line id="Line_109" data-name="Line 109" y2="6.065" transform="translate(11.85 0.153)" fill="none" stroke="#002581" stroke-miterlimit="10" stroke-width="0.75"/>
        <line id="Line_110" data-name="Line 110" y2="5.944" transform="translate(19.74 0.199)" fill="none" stroke="#002581" stroke-miterlimit="10" stroke-width="0.75"/>
        <line id="Line_111" data-name="Line 111" y2="5.944" transform="translate(22.362 0.116)" fill="none" stroke="#002581" stroke-miterlimit="10" stroke-width="0.75"/>
        <line id="Line_112" data-name="Line 112" y2="5.944" transform="translate(23.682 0.135)" fill="none" stroke="#002581" stroke-miterlimit="10" stroke-width="0.75"/>
        <line id="Line_113" data-name="Line 113" y2="5.944" transform="translate(25.001 0.116)" fill="none" stroke="#002581" stroke-miterlimit="10" stroke-width="0.75"/>
        <line id="Line_114" data-name="Line 114" y2="5.944" transform="translate(21.057 0.206)" fill="none" stroke="#002581" stroke-miterlimit="10" stroke-width="0.75"/>
        <line id="Line_115" data-name="Line 115" y2="5.928" transform="translate(5.277 0.178)" fill="none" stroke="#002581" stroke-miterlimit="10" stroke-width="0.75"/>
        <line id="Line_116" data-name="Line 116" y2="5.928" transform="translate(3.967 0.144)" fill="none" stroke="#002581" stroke-miterlimit="10" stroke-width="0.75"/>
        <line id="Line_117" data-name="Line 117" y2="6.017" transform="translate(2.654 0.187)" fill="none" stroke="#002581" stroke-miterlimit="10" stroke-width="0.75"/>
        <line id="Line_118" data-name="Line 118" y2="5.928" transform="translate(1.333 0.143)" fill="none" stroke="#002581" stroke-miterlimit="10" stroke-width="0.75"/>
      </g>
    </g>
    <g id="Group_43" data-name="Group 43" transform="translate(77.933 127.648)">
      <path id="Path_68" data-name="Path 68" d="M85.629,298.073h-7.7V135.122l7.7-7.453Zm-6.858-.838h6.019V129.648l-6.019,5.829Z" transform="translate(-77.933 -127.659)" fill="#002581"/>
      <path id="Path_69" data-name="Path 69" d="M94.079,298.232l-.044-.838,208.851-10.962V228.5L93.876,128.4l.362-.757L303.724,227.968v59.26Z" transform="translate(-86.536 -127.648)" fill="#002581"/>
    </g>
    <g id="Group_44" data-name="Group 44" transform="translate(144.592 186.524)">
      <path id="Path_70" data-name="Path 70" d="M223.214,256.714s7.867-4.722,11.608,4.682v9.127l-11.608-3.293Z" transform="translate(-222.985 -255.529)" fill="#002581"/>
      <path id="Path_71" data-name="Path 71" d="M223.579,397.923l12,.741v13.089l-12-.708Z" transform="translate(-223.182 -332.365)" fill="#002581"/>
      <path id="Path_72" data-name="Path 72" d="M224,435.135l12,.741v13.089l-12-.708Z" transform="translate(-223.409 -352.444)" fill="#002581"/>
      <path id="Path_73" data-name="Path 73" d="M222.717,360.633l12.2,2.54v12.46l-12.2-1.27Z" transform="translate(-222.717 -312.243)" fill="#002581"/>
      <path id="Path_74" data-name="Path 74" d="M222.717,324.606l11.746,2.778v12.851l-11.746-2.058Z" transform="translate(-222.717 -292.803)" fill="#002581"/>
      <path id="Path_75" data-name="Path 75" d="M223.214,301.652l11.608,2.381V292.049L223.214,288.1Z" transform="translate(-222.985 -273.103)" fill="#002581"/>
    </g>
    <g id="Group_45" data-name="Group 45" transform="translate(171.628 194.022)">
      <path id="Path_76" data-name="Path 76" d="M281.886,272.911s7.064-4.374,10.423,4.337V285.7l-10.423-3.051Z" transform="translate(-281.681 -271.813)" fill="#002581"/>
      <path id="Path_77" data-name="Path 77" d="M282.214,403.7l10.771.686v12.123l-10.771-.656Z" transform="translate(-281.858 -342.981)" fill="#002581"/>
      <path id="Path_78" data-name="Path 78" d="M282.592,438.17l10.771.686v12.123l-10.771-.656Z" transform="translate(-282.062 -361.579)" fill="#002581"/>
      <path id="Path_79" data-name="Path 79" d="M281.44,369.164l10.954,2.352v11.541l-10.954-1.176Z" transform="translate(-281.44 -324.343)" fill="#002581"/>
      <path id="Path_80" data-name="Path 80" d="M281.44,335.795l10.547,2.573v11.9l-10.547-1.906Z" transform="translate(-281.44 -306.338)" fill="#002581"/>
      <path id="Path_81" data-name="Path 81" d="M281.886,314.534l10.424,2.205v-11.1l-10.424-3.661Z" transform="translate(-281.681 -288.09)" fill="#002581"/>
    </g>
    <g id="Group_46" data-name="Group 46" transform="translate(192.6 199.187)">
      <path id="Path_82" data-name="Path 82" d="M327.417,284.066s6.76-4.121,9.975,4.086v7.965l-9.975-2.874Z" transform="translate(-327.221 -283.031)" fill="#002581"/>
      <path id="Path_83" data-name="Path 83" d="M327.731,407.3l10.307.646v11.423l-10.307-.618Z" transform="translate(-327.39 -350.087)" fill="#002581"/>
      <path id="Path_84" data-name="Path 84" d="M328.093,439.777l10.307.646v11.423l-10.307-.618Z" transform="translate(-327.585 -367.611)" fill="#002581"/>
      <path id="Path_85" data-name="Path 85" d="M326.991,374.758l10.482,2.216v10.874l-10.482-1.108Z" transform="translate(-326.991 -332.527)" fill="#002581"/>
      <path id="Path_86" data-name="Path 86" d="M326.991,343.317l10.092,2.424v11.215l-10.092-1.8Z" transform="translate(-326.991 -315.561)" fill="#002581"/>
      <path id="Path_87" data-name="Path 87" d="M327.417,323.284l9.974,2.078V314.9l-9.974-3.449Z" transform="translate(-327.221 -298.368)" fill="#002581"/>
    </g>
    <g id="Group_47" data-name="Group 47" transform="translate(211.465 205.666)">
      <path id="Path_88" data-name="Path 88" d="M368.355,298.055s6.161-3.785,9.09,3.754v7.316l-9.09-2.64Z" transform="translate(-368.176 -297.105)" fill="#002581"/>
      <path id="Path_89" data-name="Path 89" d="M368.641,411.253l9.393.594v10.492l-9.393-.568Z" transform="translate(-368.331 -358.699)" fill="#002581"/>
      <path id="Path_90" data-name="Path 90" d="M368.971,441.082l9.393.594v10.492l-9.393-.568Z" transform="translate(-368.508 -374.795)" fill="#002581"/>
      <path id="Path_91" data-name="Path 91" d="M367.966,381.359l9.553,2.036v9.988l-9.553-1.018Z" transform="translate(-367.966 -342.568)" fill="#002581"/>
      <path id="Path_92" data-name="Path 92" d="M367.966,352.479l9.2,2.227v10.3l-9.2-1.649Z" transform="translate(-367.966 -326.985)" fill="#002581"/>
      <path id="Path_93" data-name="Path 93" d="M368.355,334.079l9.09,1.909v-9.606l-9.09-3.168Z" transform="translate(-368.176 -311.193)" fill="#002581"/>
    </g>
    <g id="Group_48" data-name="Group 48" transform="translate(226.617 212.033)">
      <path id="Path_94" data-name="Path 94" d="M401.241,311.807s5.787-3.474,8.539,3.444v6.713l-8.539-2.422Z" transform="translate(-401.073 -310.935)" fill="#002581"/>
      <path id="Path_95" data-name="Path 95" d="M401.51,415.674l8.823.545v9.627l-8.823-.521Z" transform="translate(-401.218 -367.452)" fill="#002581"/>
      <path id="Path_96" data-name="Path 96" d="M401.819,443.045l8.823.545v9.627l-8.823-.521Z" transform="translate(-401.385 -382.221)" fill="#002581"/>
      <path id="Path_97" data-name="Path 97" d="M400.876,388.245l8.973,1.868v9.165l-8.973-.934Z" transform="translate(-400.876 -352.651)" fill="#002581"/>
      <path id="Path_98" data-name="Path 98" d="M400.876,361.745l8.64,2.043v9.453l-8.64-1.513Z" transform="translate(-400.876 -338.352)" fill="#002581"/>
      <path id="Path_99" data-name="Path 99" d="M401.241,344.861l8.538,1.751V337.8l-8.538-2.907Z" transform="translate(-401.073 -323.861)" fill="#002581"/>
    </g>
    <g id="Group_49" data-name="Group 49" transform="translate(239.616 216.555)">
      <path id="Path_100" data-name="Path 100" d="M429.415,321.571s4.836-3.252,7.136,3.226v6.286l-7.136-2.268Z" transform="translate(-429.275 -320.755)" fill="#002581"/>
      <path id="Path_101" data-name="Path 101" d="M429.64,418.839l7.374.51v9.016l-7.374-.488Z" transform="translate(-429.396 -373.681)" fill="#002581"/>
      <path id="Path_102" data-name="Path 102" d="M429.9,444.471l7.374.51V454l-7.374-.488Z" transform="translate(-429.536 -387.511)" fill="#002581"/>
      <path id="Path_103" data-name="Path 103" d="M429.11,393.152l7.5,1.749v8.583l-7.5-.875Z" transform="translate(-429.11 -359.82)" fill="#002581"/>
      <path id="Path_104" data-name="Path 104" d="M429.11,368.337l7.22,1.913V379.1l-7.22-1.417Z" transform="translate(-429.11 -346.43)" fill="#002581"/>
      <path id="Path_105" data-name="Path 105" d="M429.415,352.525l7.136,1.64v-8.255l-7.136-2.722Z" transform="translate(-429.275 -332.86)" fill="#002581"/>
    </g>
    <g id="Group_50" data-name="Group 50" transform="translate(251.804 220.058)">
      <path id="Path_106" data-name="Path 106" d="M455.811,329.138s3.609-3.081,5.325,3.056v5.955L455.811,336Z" transform="translate(-455.706 -328.364)" fill="#002581"/>
      <path id="Path_107" data-name="Path 107" d="M455.978,421.28l5.5.483V430.3l-5.5-.462Z" transform="translate(-455.796 -378.501)" fill="#002581"/>
      <path id="Path_108" data-name="Path 108" d="M456.171,445.561l5.5.483v8.54l-5.5-.462Z" transform="translate(-455.9 -391.603)" fill="#002581"/>
      <path id="Path_109" data-name="Path 109" d="M455.583,396.947l5.6,1.657v8.13l-5.6-.829Z" transform="translate(-455.583 -365.371)" fill="#002581"/>
      <path id="Path_110" data-name="Path 110" d="M455.583,373.439l5.388,1.812v8.385l-5.388-1.343Z" transform="translate(-455.583 -352.686)" fill="#002581"/>
      <path id="Path_111" data-name="Path 111" d="M455.811,358.461l5.325,1.554v-7.82l-5.325-2.579Z" transform="translate(-455.706 -339.831)" fill="#002581"/>
    </g>
    <g id="Group_51" data-name="Group 51" transform="translate(263.211 224.067)">
      <path id="Path_112" data-name="Path 112" d="M480.552,337.8s3.043-2.887,4.49,2.863v5.58l-4.49-2.014Z" transform="translate(-480.464 -337.071)" fill="#002581"/>
      <path id="Path_113" data-name="Path 113" d="M480.693,424.132l4.64.453v8l-4.64-.433Z" transform="translate(-480.54 -384.049)" fill="#002581"/>
      <path id="Path_114" data-name="Path 114" d="M480.856,446.883l4.64.453v8l-4.64-.433Z" transform="translate(-480.627 -396.325)" fill="#002581"/>
      <path id="Path_115" data-name="Path 115" d="M480.36,401.332l4.719,1.553V410.5l-4.719-.776Z" transform="translate(-480.36 -371.746)" fill="#002581"/>
      <path id="Path_116" data-name="Path 116" d="M480.36,379.305,484.9,381v7.857L480.36,387.6Z" transform="translate(-480.36 -359.861)" fill="#002581"/>
      <path id="Path_117" data-name="Path 117" d="M480.552,365.271l4.49,1.456V359.4l-4.49-2.416Z" transform="translate(-480.463 -347.816)" fill="#002581"/>
    </g>
    <g id="Group_52" data-name="Group 52" transform="translate(273.299 227.993)">
      <path id="Path_118" data-name="Path 118" d="M502.447,346.274s2.818-2.693,4.157,2.67v5.2l-4.157-1.878Z" transform="translate(-502.365 -345.598)" fill="#002581"/>
      <path id="Path_119" data-name="Path 119" d="M502.578,426.808l4.3.422V434.7l-4.3-.4Z" transform="translate(-502.436 -389.419)" fill="#002581"/>
      <path id="Path_120" data-name="Path 120" d="M502.729,448.03l4.3.422v7.465l-4.3-.4Z" transform="translate(-502.517 -400.87)" fill="#002581"/>
      <path id="Path_121" data-name="Path 121" d="M502.27,405.541l4.368,1.448v7.106l-4.368-.724Z" transform="translate(-502.27 -377.943)" fill="#002581"/>
      <path id="Path_122" data-name="Path 122" d="M502.27,384.994l4.206,1.584v7.329l-4.206-1.173Z" transform="translate(-502.27 -366.856)" fill="#002581"/>
      <path id="Path_123" data-name="Path 123" d="M502.447,371.9l4.157,1.358v-6.834l-4.157-2.254Z" transform="translate(-502.366 -355.621)" fill="#002581"/>
    </g>
    <g id="Group_53" data-name="Group 53" transform="translate(282.053 231.333)">
      <path id="Path_124" data-name="Path 124" d="M521.429,353.489s2.287-2.535,3.374,2.514v4.9l-3.374-1.768Z" transform="translate(-521.363 -352.853)" fill="#002581"/>
      <path id="Path_125" data-name="Path 125" d="M521.535,429.3l3.487.4v7.027l-3.487-.38Z" transform="translate(-521.42 -394.103)" fill="#002581"/>
      <path id="Path_126" data-name="Path 126" d="M521.658,449.276l3.486.4V456.7l-3.486-.38Z" transform="translate(-521.486 -404.883)" fill="#002581"/>
      <path id="Path_127" data-name="Path 127" d="M521.285,409.279l3.546,1.363v6.689l-3.546-.682Z" transform="translate(-521.285 -383.3)" fill="#002581"/>
      <path id="Path_128" data-name="Path 128" d="M521.285,389.938l3.414,1.491v6.9l-3.414-1.1Z" transform="translate(-521.285 -372.864)" fill="#002581"/>
      <path id="Path_129" data-name="Path 129" d="M521.429,377.615l3.374,1.278v-6.434l-3.374-2.122Z" transform="translate(-521.363 -362.287)" fill="#002581"/>
    </g>
    <g id="Group_54" data-name="Group 54" transform="translate(289.578 235.255)">
      <path id="Path_130" data-name="Path 130" d="M537.75,361.956s1.94-2.328,2.863,2.308v4.5l-2.863-1.624Z" transform="translate(-537.694 -361.371)" fill="#002581"/>
      <path id="Path_131" data-name="Path 131" d="M537.841,431.578l2.959.365V438.4l-2.959-.349Z" transform="translate(-537.743 -399.255)" fill="#002581"/>
      <path id="Path_132" data-name="Path 132" d="M537.944,449.925l2.959.365v6.453l-2.959-.349Z" transform="translate(-537.799 -409.155)" fill="#002581"/>
      <path id="Path_133" data-name="Path 133" d="M537.628,413.192l3.009,1.252v6.143l-3.009-.626Z" transform="translate(-537.628 -389.334)" fill="#002581"/>
      <path id="Path_134" data-name="Path 134" d="M537.628,395.43l2.9,1.37v6.336l-2.9-1.014Z" transform="translate(-537.628 -379.749)" fill="#002581"/>
      <path id="Path_135" data-name="Path 135" d="M537.75,384.112l2.863,1.174v-5.908l-2.863-1.949Z" transform="translate(-537.694 -370.036)" fill="#002581"/>
    </g>
    <rect id="Rectangle_203" data-name="Rectangle 203" width="82.506" height="0.838" transform="translate(282.17 221.751)" fill="#002581"/>
    <g id="Group_56" data-name="Group 56" transform="translate(318.399 225.245)">
      <path id="Path_136" data-name="Path 136" d="M600.49,351.326h26.694" transform="translate(-600.369 -345.941)" fill="none" stroke="#002581" stroke-miterlimit="10" stroke-width="0.75"/>
      <g id="Group_55" data-name="Group 55">
        <path id="Path_137" data-name="Path 137" d="M627.042,347.1H600.228v-7.259h26.814V347.1Z" transform="translate(-600.228 -339.742)" fill="none" stroke="#002581" stroke-miterlimit="10" stroke-width="0.75"/>
        <path id="Path_138" data-name="Path 138" d="M629.314,339.856v7.179" transform="translate(-615.923 -339.752)" fill="none" stroke="#002581" stroke-miterlimit="10" stroke-width="0.75"/>
        <path id="Path_139" data-name="Path 139" d="M632.2,339.867v7.179" transform="translate(-617.479 -339.758)" fill="none" stroke="#002581" stroke-miterlimit="10" stroke-width="0.75"/>
        <path id="Path_140" data-name="Path 140" d="M635.1,340.144v7.179" transform="translate(-619.047 -339.907)" fill="none" stroke="#002581" stroke-miterlimit="10" stroke-width="0.75"/>
        <path id="Path_141" data-name="Path 141" d="M638.058,340.195v7.179" transform="translate(-620.641 -339.935)" fill="none" stroke="#002581" stroke-miterlimit="10" stroke-width="0.75"/>
        <path id="Path_142" data-name="Path 142" d="M640.992,340.144v7.179" transform="translate(-622.224 -339.907)" fill="none" stroke="#002581" stroke-miterlimit="10" stroke-width="0.75"/>
        <path id="Path_143" data-name="Path 143" d="M614.779,339.837v7.191" transform="translate(-608.08 -339.742)" fill="none" stroke="#002581" stroke-miterlimit="10" stroke-width="0.75"/>
        <path id="Path_144" data-name="Path 144" d="M617.679,339.63v7.191" transform="translate(-609.645 -339.63)" fill="none" stroke="#002581" stroke-miterlimit="10" stroke-width="0.75"/>
        <path id="Path_145" data-name="Path 145" d="M620.578,339.638v7.192" transform="translate(-611.209 -339.634)" fill="none" stroke="#002581" stroke-miterlimit="10" stroke-width="0.75"/>
        <path id="Path_146" data-name="Path 146" d="M623.493,339.91V347.1" transform="translate(-612.782 -339.781)" fill="none" stroke="#002581" stroke-miterlimit="10" stroke-width="0.75"/>
        <path id="Path_147" data-name="Path 147" d="M626.408,340.025v7.191" transform="translate(-614.355 -339.844)" fill="none" stroke="#002581" stroke-miterlimit="10" stroke-width="0.75"/>
        <path id="Path_148" data-name="Path 148" d="M643.84,340.144v7.048" transform="translate(-623.761 -339.907)" fill="none" stroke="#002581" stroke-miterlimit="10" stroke-width="0.75"/>
        <path id="Path_149" data-name="Path 149" d="M649.633,339.928v7.048" transform="translate(-626.887 -339.791)" fill="none" stroke="#002581" stroke-miterlimit="10" stroke-width="0.75"/>
        <path id="Path_150" data-name="Path 150" d="M652.548,339.979v7.048" transform="translate(-628.46 -339.818)" fill="none" stroke="#002581" stroke-miterlimit="10" stroke-width="0.75"/>
        <path id="Path_151" data-name="Path 151" d="M655.464,339.928v7.048" transform="translate(-630.033 -339.791)" fill="none" stroke="#002581" stroke-miterlimit="10" stroke-width="0.75"/>
        <path id="Path_152" data-name="Path 152" d="M646.75,340.161v7.048" transform="translate(-625.331 -339.917)" fill="none" stroke="#002581" stroke-miterlimit="10" stroke-width="0.75"/>
        <path id="Path_153" data-name="Path 153" d="M611.886,340.088v7.028" transform="translate(-606.519 -339.877)" fill="none" stroke="#002581" stroke-miterlimit="10" stroke-width="0.75"/>
        <path id="Path_154" data-name="Path 154" d="M608.992,340v7.028" transform="translate(-604.957 -339.83)" fill="none" stroke="#002581" stroke-miterlimit="10" stroke-width="0.75"/>
        <path id="Path_155" data-name="Path 155" d="M606.091,340.111v7.134" transform="translate(-603.392 -339.89)" fill="none" stroke="#002581" stroke-miterlimit="10" stroke-width="0.75"/>
        <path id="Path_156" data-name="Path 156" d="M603.174,340v7.028" transform="translate(-601.818 -339.828)" fill="none" stroke="#002581" stroke-miterlimit="10" stroke-width="0.75"/>
      </g>
      <path id="Path_157" data-name="Path 157" d="M600.269,344.458h26.708" transform="translate(-600.25 -342.235)" fill="none" stroke="#002581" stroke-miterlimit="10" stroke-width="0.75"/>
      <path id="Path_158" data-name="Path 158" d="M644.218,347.241" transform="translate(-623.965 -343.737)" fill="none" stroke="#002581" stroke-miterlimit="10" stroke-width="0.75"/>
    </g>
    <line id="Line_119" data-name="Line 119" x2="23.631" transform="translate(294.686 228.093)" fill="none" stroke="#002581" stroke-miterlimit="10" stroke-width="2"/>
    <line id="Line_120" data-name="Line 120" x2="9.626" transform="translate(345.27 227.993)" fill="none" stroke="#002581" stroke-miterlimit="10" stroke-width="2"/>
    <path id="Path_159" data-name="Path 159" d="M147.154,397.351l8.008-.139a.372.372,0,0,1,.373.373l.047,6.068h0l13.869,2.479v5.6a.368.368,0,0,1-.521.345l-13.581-6.418-8.248-2.008-.308-5.906A.372.372,0,0,1,147.154,397.351Z" transform="translate(-37.157 -145.456)" fill="#818386" opacity="0.83"/>
    <rect id="Rectangle_204" data-name="Rectangle 204" width="0.838" height="58.799" transform="translate(313.942 228.093)" fill="#002581"/>
    <path id="Path_160" data-name="Path 160" d="M149.2,434.555l7.923-.15a.371.371,0,0,1,.353.395l-.029,6.268a.386.386,0,0,0,.273.385l12.907,2.237c.153.038.073,1.072.081,1.25l.247,5.882a.352.352,0,0,1-.494.372l-12.847-6.762a2.8,2.8,0,0,0-.729-.279l-7.71-2a.385.385,0,0,1-.275-.381l-.039-6.823A.372.372,0,0,1,149.2,434.555Z" transform="translate(-38.274 -165.525)" fill="#818386" opacity="0.83"/>
    <path id="Path_161" data-name="Path 161" d="M843.514,268.619l7.328-4.233V365.713h-7.328Z" transform="translate(-413.106 -73.784)" fill="#002581"/>
    <path id="Path_162" data-name="Path 162" d="M818.37,283.909l7.244-3.9V373.3H818.37Z" transform="translate(-399.538 -82.215)" fill="#002581"/>
    <path id="Path_163" data-name="Path 163" d="M793.134,296.52l7.245-3.615v86.531h-7.245Z" transform="translate(-385.921 -89.173)" fill="#002581"/>
    <path id="Path_164" data-name="Path 164" d="M767.618,309.776l7.245-3.321v79.49h-7.245Z" transform="translate(-372.152 -96.484)" fill="#002581"/>
    <path id="Path_165" data-name="Path 165" d="M742.382,321.111l7.245-3.073V391.59h-7.245Z" transform="translate(-358.535 -102.734)" fill="#002581"/>
    <path id="Path_166" data-name="Path 166" d="M716.246,333.555l6.883-2.787v66.718h-6.883Z" transform="translate(-344.432 -109.603)" fill="#002581"/>
    <path id="Path_167" data-name="Path 167" d="M691.807,345.488l6.1-2.515v60.193h-6.1Z" transform="translate(-331.245 -116.189)" fill="#002581"/>
    <path id="Path_168" data-name="Path 168" d="M597.572,330.329l1.019-1.585,2,1.585Z" transform="translate(-280.396 -108.511)" fill="#002581"/>
    <path id="Path_169" data-name="Path 169" d="M612.569,329.068l2.151-2.905,2.792,2.792Z" transform="translate(-288.488 -107.118)" fill="#002581"/>
    <path id="Path_170" data-name="Path 170" d="M629.37,328.57l3.358-2.981,1.7,3.169Z" transform="translate(-297.554 -106.809)" fill="#002581"/>
    <path id="Path_171" data-name="Path 171" d="M643.964,330.016l2.188-1.887.377,1.887Z" transform="translate(-305.429 -108.18)" fill="#002581"/>
    <path id="Path_172" data-name="Path 172" d="M144.674,282.573l-.349-8.583a.209.209,0,0,1,.218-.207h8.938a.209.209,0,0,1,.218.2v8.591a.2.2,0,0,0,.143.187l14.479,4.857a.2.2,0,0,1,.143.187V294.2a.219.219,0,0,1-.34.165l-14.617-9.029a.235.235,0,0,0-.055-.024l-8.626-2.555A.2.2,0,0,1,144.674,282.573Z" transform="translate(-35.825 -78.854)" fill="#96999c" opacity="0.83"/>
    <path id="Path_173" data-name="Path 173" d="M178.066,240.527,163.36,233.7a.42.42,0,0,0-.6.358l-.473,8.543a.222.222,0,0,0,.135.217l15.5,6.566a.222.222,0,0,1,.135.2v7.542a.222.222,0,0,1-.295.209l-15.194-5.264a.222.222,0,0,0-.3.21v8.942a.222.222,0,0,0,.157.212l15.47,4.765a.222.222,0,0,1,.157.212v7.952a.222.222,0,0,1-.279.214l-15.224-4.1a.223.223,0,0,0-.28.215v9.328a.222.222,0,0,0,.177.217l15.765,3.269a.222.222,0,0,1,.177.217v7.825a.222.222,0,0,1-.235.222l-15.649-.922a.222.222,0,0,0-.235.221v6.9a.223.223,0,0,0,.189.22l15.742,2.411a.222.222,0,0,1,.189.22v8.054a.222.222,0,0,1-.225.222l-15.915-.185a.222.222,0,0,0-.225.222v7.244a.223.223,0,0,0,.2.221l15.961,1.482a.222.222,0,0,1,.2.221v8.3a.222.222,0,0,1-.232.222l-15.906-.7a.222.222,0,0,0-.232.216l-.221,8.255a.222.222,0,0,0,.21.227l16.381.9" transform="translate(-45.26 -57.204)" fill="#002581"/>
    <path id="Path_174" data-name="Path 174" d="M118.839,327.089l.478-143.414s25.059-1.839,35.364,18.694l.071,122.71" transform="translate(-22.073 -30.21)" fill="none" stroke="#002581" stroke-miterlimit="10" stroke-width="2"/>
  </g>
</svg>
