<svg xmlns="http://www.w3.org/2000/svg" width="37.436" height="50.01" viewBox="0 0 37.436 50.01">
  <path id="Path_16" data-name="Path 16" d="M165.61,166.93c-.29-.3-.61-.59-.93-.88a1.651,1.651,0,0,0,.55-2.19,3.065,3.065,0,0,0-3.07-1.68,1.7,1.7,0,0,1-1.47-.41c-1.12-.93-2.26-1.83-3.47-2.79a3.334,3.334,0,0,0,2.21-2.68c.55-2.12-1.15-2.71-1.87-2.96a3.078,3.078,0,0,1-.52-.21,10.4,10.4,0,0,1-3.48-2.79c-.51-.69-.5-.9-.49-.92,0,0,.07-.15.49-.36.38-.19,1.53-.76,1.62-1.88a2.594,2.594,0,0,0-1.33-2.13c-.17-.12-.33-.25-.48-.38a4.072,4.072,0,0,0-2.64-1.16,2.265,2.265,0,0,1-.48-.04.215.215,0,0,1-.02-.11,3.483,3.483,0,0,0-1.42-2.65,3.553,3.553,0,0,0-3.03-.52,5.962,5.962,0,0,0-.91.35,2.026,2.026,0,0,1-1.03.29,25.253,25.253,0,0,0-2.61-.03v-5.69h12.56a.987.987,0,0,0,.92-.62,1.017,1.017,0,0,0-.21-1.09l-3.69-3.72,3.69-3.72a1,1,0,0,0,.21-1.09,1.013,1.013,0,0,0-.92-.62H140.23a1,1,0,0,0-1,1v15.7c-1.66.18-3.3.46-4.91.74-1.48.26-3.01.52-4.53.7a.964.964,0,0,0-.7.42,1.026,1.026,0,0,0-.16.8,3.469,3.469,0,0,0,1.31,1.95,3.81,3.81,0,0,1,.36.33c1.72,2.02,1.64,2.94.95,3.75-1.79,2.12-.89,4.02-.23,5.41a5.9,5.9,0,0,1,.59,1.61,2.19,2.19,0,0,0,1.03,1.53,5.273,5.273,0,0,0,3.86.7c2.41-.62,4,.43,5.92,2.45.72.75,2.4,2.52,4.82,1.15.06-.03.1-.04.1-.05.04.02.16.11.38.47a5.2,5.2,0,0,0,6.73,2.33c.13-.04.27-.11.42-.17.01,0,.02-.01.03-.01a11.407,11.407,0,0,0,2.02,4.53,12.9,12.9,0,0,1,1.54,2.9,2.5,2.5,0,0,0,1.21,1.57,2.024,2.024,0,0,0,.89.2,4.6,4.6,0,0,0,1.63-.4,2.721,2.721,0,0,1,1.08-.28,1.524,1.524,0,0,0,1.37-.27,2,2,0,0,0,.52-1.79,2.877,2.877,0,0,1-.01-.4,2.2,2.2,0,0,0-.33-1.53c.04,0,.09-.01.14-.01a1.145,1.145,0,0,0,1-.74C166.59,168.03,165.85,167.18,165.61,166.93Zm-24.37-40.65H151.4L148.7,129a1,1,0,0,0,0,1.41l2.7,2.72H141.24Zm21.91,42.27a1.975,1.975,0,0,0,.2,1.94c.05.1.12.23.15.31a4.216,4.216,0,0,0-.02.79,4.878,4.878,0,0,0-1.68.41,3.172,3.172,0,0,1-.93.27.95.95,0,0,1-.19-.38,14.359,14.359,0,0,0-1.76-3.37,9.2,9.2,0,0,1-1.76-3.99,1.712,1.712,0,0,0-.8-1.42,1.508,1.508,0,0,0-.75-.2,3.108,3.108,0,0,0-1.25.35q-.15.06-.27.12a3.186,3.186,0,0,1-4.35-1.5c-1.15-1.86-2.47-1.49-3.16-1.11-.84.47-1.35.3-2.39-.79-1.86-1.96-4.16-3.97-7.87-3.01a3.182,3.182,0,0,1-2.41-.53,7.371,7.371,0,0,0-.77-2.23c-.66-1.4-.96-2.18-.04-3.27,2.21-2.63-.1-5.33-.96-6.34h0a4.491,4.491,0,0,0-.44-.43c1.01-.15,2.01-.33,2.99-.5,1.56-.27,3.07-.53,4.57-.7v8.67a1,1,0,0,0,2,0v-8.83a20.375,20.375,0,0,1,2.47.02,3.866,3.866,0,0,0,2-.47,4.072,4.072,0,0,1,.61-.24,1.576,1.576,0,0,1,1.33.21,1.438,1.438,0,0,1,.59,1.14c.04.74.42,1.99,2.52,2.04a2.144,2.144,0,0,1,1.35.69c.19.16.39.32.6.47a3.12,3.12,0,0,1,.41.34,2.581,2.581,0,0,1-.43.25,2.658,2.658,0,0,0-1.55,1.68,3.187,3.187,0,0,0,.83,2.58,12.3,12.3,0,0,0,4.11,3.34,5.988,5.988,0,0,0,.85.36,2.547,2.547,0,0,1,.62.26.747.747,0,0,1-.04.31c-.33,1.27-.83,1.42-1.64,1.26a2.585,2.585,0,0,0-.92,0c-.14.01-.3.03-.5.04a1.007,1.007,0,0,0-.9.7.99.99,0,0,0,.33,1.08l1.63,1.29c1.38,1.09,2.66,2.1,3.91,3.14a3.667,3.667,0,0,0,2.99.85,1.1,1.1,0,0,1,.92.4.746.746,0,0,1-.12.07,3.509,3.509,0,0,0-.87.66,1,1,0,0,0,.07,1.41c.21.19.42.38.62.55.26.23.52.46.76.69A1.522,1.522,0,0,0,163.15,168.55Z" transform="translate(-128.907 -124.25)" fill="#053fa5"/>
</svg>
