<svg xmlns="http://www.w3.org/2000/svg" width="50" height="50" viewBox="0 0 50 50">
    <path style="text-indent:0;text-align:start;line-height:normal;text-transform:none;block-progression:tb;-inkscape-font-specification:Bitstream Vera Sans" d="M 24.84375 2 A 1.0001 1.0001 0 0 0 24.75 2.03125 L 0.75 8.125 A 1.0001 1.0001 0 0 0 0 9.09375 L 0 46 A 1.0001 1.0001 0 0 0 1 47 L 20.84375 47 L 29.09375 47 L 49 47 A 1.0001 1.0001 0 0 0 50 46 L 50 9.09375 A 1.0001 1.0001 0 0 0 49.25 8.125 L 25.25 2.03125 A 1.0001 1.0001 0 0 0 24.84375 2 z M 25 4.03125 L 48 9.875 L 48 45 L 30 45 L 30 33 A 1.0001 1.0001 0 0 0 29 32 L 21 32 A 1.0001 1.0001 0 0 0 20.90625 32 A 1.0001 1.0001 0 0 0 20 33 L 20 45 L 2 45 L 2 9.875 L 25 4.03125 z M 6.8125 12 A 1.0001 1.0001 0 0 0 6 13 L 6 19 A 1.0001 1.0001 0 0 0 7 20 L 15 20 A 1.0001 1.0001 0 0 0 16 19 L 16 13 A 1.0001 1.0001 0 0 0 15 12 L 7 12 A 1.0001 1.0001 0 0 0 6.90625 12 A 1.0001 1.0001 0 0 0 6.8125 12 z M 20.8125 12 A 1.0001 1.0001 0 0 0 20 13 L 20 19 A 1.0001 1.0001 0 0 0 21 20 L 29 20 A 1.0001 1.0001 0 0 0 30 19 L 30 13 A 1.0001 1.0001 0 0 0 29 12 L 21 12 A 1.0001 1.0001 0 0 0 20.90625 12 A 1.0001 1.0001 0 0 0 20.8125 12 z M 34.8125 12 A 1.0001 1.0001 0 0 0 34 13 L 34 19 A 1.0001 1.0001 0 0 0 35 20 L 43 20 A 1.0001 1.0001 0 0 0 44 19 L 44 13 A 1.0001 1.0001 0 0 0 43 12 L 35 12 A 1.0001 1.0001 0 0 0 34.90625 12 A 1.0001 1.0001 0 0 0 34.8125 12 z M 8 14 L 14 14 L 14 18 L 8 18 L 8 14 z M 22 14 L 28 14 L 28 18 L 22 18 L 22 14 z M 36 14 L 42 14 L 42 18 L 36 18 L 36 14 z M 6.8125 22 A 1.0001 1.0001 0 0 0 6 23 L 6 29 A 1.0001 1.0001 0 0 0 7 30 L 15 30 A 1.0001 1.0001 0 0 0 16 29 L 16 23 A 1.0001 1.0001 0 0 0 15 22 L 7 22 A 1.0001 1.0001 0 0 0 6.90625 22 A 1.0001 1.0001 0 0 0 6.8125 22 z M 20.8125 22 A 1.0001 1.0001 0 0 0 20 23 L 20 29 A 1.0001 1.0001 0 0 0 21 30 L 29 30 A 1.0001 1.0001 0 0 0 30 29 L 30 23 A 1.0001 1.0001 0 0 0 29 22 L 21 22 A 1.0001 1.0001 0 0 0 20.90625 22 A 1.0001 1.0001 0 0 0 20.8125 22 z M 34.8125 22 A 1.0001 1.0001 0 0 0 34 23 L 34 29 A 1.0001 1.0001 0 0 0 35 30 L 43 30 A 1.0001 1.0001 0 0 0 44 29 L 44 23 A 1.0001 1.0001 0 0 0 43 22 L 35 22 A 1.0001 1.0001 0 0 0 34.90625 22 A 1.0001 1.0001 0 0 0 34.8125 22 z M 8 24 L 14 24 L 14 28 L 8 28 L 8 24 z M 22 24 L 28 24 L 28 28 L 22 28 L 22 24 z M 36 24 L 42 24 L 42 28 L 36 28 L 36 24 z M 6.8125 32 A 1.0001 1.0001 0 0 0 6 33 L 6 39 A 1.0001 1.0001 0 0 0 7 40 L 15 40 A 1.0001 1.0001 0 0 0 16 39 L 16 33 A 1.0001 1.0001 0 0 0 15 32 L 7 32 A 1.0001 1.0001 0 0 0 6.90625 32 A 1.0001 1.0001 0 0 0 6.8125 32 z M 34.8125 32 A 1.0001 1.0001 0 0 0 34 33 L 34 39 A 1.0001 1.0001 0 0 0 35 40 L 43 40 A 1.0001 1.0001 0 0 0 44 39 L 44 33 A 1.0001 1.0001 0 0 0 43 32 L 35 32 A 1.0001 1.0001 0 0 0 34.90625 32 A 1.0001 1.0001 0 0 0 34.8125 32 z M 8 34 L 14 34 L 14 38 L 8 38 L 8 34 z M 22 34 L 28 34 L 28 45 L 22 45 L 22 34 z M 36 34 L 42 34 L 42 38 L 36 38 L 36 34 z" fill="#f0a901"/>
</svg>