<svg xmlns="http://www.w3.org/2000/svg" width="37.555" height="50" viewBox="0 0 37.555 50">
  <path id="Path_15" data-name="Path 15" d="M282.13,143.6l-5.41-5.41a.99.99,0,0,0-.71-.29h-5.5v-8.83h4.9l5.12,5.12a.982.982,0,0,0,.71.29,1.024,1.024,0,0,0,.71-.29,1,1,0,0,0,0-1.41l-5.41-5.41a.99.99,0,0,0-.71-.29H251.28a1.033,1.033,0,0,0-.71.29l-5.41,5.41a1,1,0,1,0,1.41,1.41l5.12-5.12h4.9v8.83h-5.13a1.033,1.033,0,0,0-.71.29l-5.41,5.41a1,1,0,1,0,1.41,1.41l5.12-5.12h4.72v5.73l-1.87,7.2v.01l-7.1,22.95a.986.986,0,0,0,.44,1.15,1,1,0,0,0,1.22-.14l14.45-14.3,14.46,14.3a1,1,0,0,0,.7.29.98.98,0,0,0,.52-.15,1.012,1.012,0,0,0,.44-1.15l-7.11-22.96h0l-2.23-7.2v-5.71h5.08l5.12,5.12a.982.982,0,0,0,.71.29,1.005,1.005,0,0,0,.71-1.72ZM258.6,129.07h9.91v8.83H258.6Zm-7.89,43.48,5.44-17.56,6.16,6.09Zm13.02-12.88-5.62-5.55,11.24-.01Zm13.03,12.88-11.61-11.48,6.17-6.1Zm-8.25-27.8H258.6v-4.86h9.91Z" transform="translate(-244.867 -127.08)" fill="#053fa5"/>
</svg>
