<svg xmlns="http://www.w3.org/2000/svg" width="58.869" height="50.013" viewBox="0 0 58.869 50.013">
  <g id="Group_7" data-name="Group 7" transform="translate(-0.027 -127.067)">
    <path id="Path_13" data-name="Path 13" d="M58.61,161.4a3.76,3.76,0,0,0-4.65-2.12L40.9,163.66c0-.06.01-.11.01-.17a3.332,3.332,0,0,0-1.42-2.79,5.882,5.882,0,0,0-2.95-1.22l-6.88-.93a3.505,3.505,0,0,1-.56-.13l-3.61-1.26a13.282,13.282,0,0,0-10.83.93l-4.24,2.35-.46-.97a.989.989,0,0,0-.57-.51.958.958,0,0,0-.76.04l-5.48,2.59a1,1,0,0,0-.48,1.33l6.42,13.59a1,1,0,0,0,.9.57.965.965,0,0,0,.43-.1l5.48-2.59a.989.989,0,0,0,.51-.57.958.958,0,0,0-.04-.76l-.8-1.69a10.554,10.554,0,0,1,4.98-.51l8.01,1.12c.89.12,1.78.25,2.66.38,1.36.2,2.73.39,4.09.57a8.272,8.272,0,0,0,1.11.07,8.746,8.746,0,0,0,2.94-.51l17.04-6.12a3.718,3.718,0,0,0,2.16-2.01A3.677,3.677,0,0,0,58.61,161.4ZM10.47,174.74,4.91,162.96l3.67-1.74.09.19-.04.02,2.99,6.24,2.52,5.34Zm46.28-11.2a1.763,1.763,0,0,1-1.01.94L38.7,170.6a6.574,6.574,0,0,1-3.1.34c-1.36-.18-2.71-.38-4.07-.57-.89-.13-1.78-.25-2.67-.38l-8.01-1.12a12.755,12.755,0,0,0-6.11.65l-1.29-2.68-2.17-4.59,4.35-2.41a11.3,11.3,0,0,1,9.2-.79l3.61,1.26a5.261,5.261,0,0,0,.95.23l6.88.93a4.009,4.009,0,0,1,1.97.79c.7.57.68,1,.68,1.15a1.775,1.775,0,0,1-.2.72,2.451,2.451,0,0,1-2.6,1.19l-9.42-1.51-.32,1.97,9.42,1.51a4.55,4.55,0,0,0,3.81-1.09l15-5.03a1.748,1.748,0,0,1,2.17.99A1.832,1.832,0,0,1,56.75,163.54Z" fill="#053fa5"/>
    <path id="Path_14" data-name="Path 14" d="M56.23,141.23l-6.42-13.59a1,1,0,0,0-1.33-.48L43,129.75a.989.989,0,0,0-.51.57.958.958,0,0,0,.04.76l.8,1.69a10.541,10.541,0,0,1-4.98.51l-8.01-1.12c-.87-.12-1.75-.25-2.62-.37-1.38-.2-2.75-.39-4.13-.58a8.584,8.584,0,0,0-4.04.44L2.51,137.77a3.739,3.739,0,0,0-2.19,4.96,3.764,3.764,0,0,0,4.65,2.12L18,140.48c0,.06-.01.11-.01.17a3.332,3.332,0,0,0,1.42,2.79,5.882,5.882,0,0,0,2.95,1.22l6.88.93a2.7,2.7,0,0,1,.56.14l3.61,1.26a13.307,13.307,0,0,0,10.83-.93l4.24-2.35.46.97a1,1,0,0,0,.9.57.965.965,0,0,0,.43-.1l5.48-2.59a.989.989,0,0,0,.51-.57A1,1,0,0,0,56.23,141.23ZM43.27,144.3a11.3,11.3,0,0,1-9.2.79l-3.61-1.26a5.261,5.261,0,0,0-.95-.23l-6.88-.93a3.926,3.926,0,0,1-1.97-.8,1.479,1.479,0,0,1-.68-1.15,1.775,1.775,0,0,1,.2-.72,2.408,2.408,0,0,1,2.17-1.23,3.365,3.365,0,0,1,.44.03l9.42,1.51.32-1.97-9.42-1.51a4.55,4.55,0,0,0-3.81,1.09l-15,5.03a1.748,1.748,0,0,1-2.17-.99,1.718,1.718,0,0,1,.02-1.37,1.763,1.763,0,0,1,1.01-.94l17.04-6.12a6.574,6.574,0,0,1,3.1-.34c1.37.18,2.74.38,4.11.58.88.13,1.75.25,2.63.37l8.01,1.12a12.7,12.7,0,0,0,6.11-.65l1.27,2.65,2.18,4.62Zm7.05-1.38-.09-.19.04-.02-3-6.24-2.52-5.33,3.67-1.73,5.56,11.78Z" fill="#053fa5"/>
    <circle id="Ellipse_1" data-name="Ellipse 1" cx="6.6" cy="6.6" r="6.6" transform="translate(24.98 145.9)" fill="#053fa5"/>
  </g>
</svg>
