<svg xmlns="http://www.w3.org/2000/svg" width="48.44" height="49.01" viewBox="0 0 48.44 49.01">
  <g id="Group_3" data-name="Group 3" transform="translate(-122.33)">
    <g id="Group_2" data-name="Group 2">
      <path id="Path_3" data-name="Path 3" d="M150.47,12.96h-20.1a.5.5,0,0,1,0-1h20.1a.5.5,0,0,1,.5.5A.5.5,0,0,1,150.47,12.96Z" fill="#f0a901"/>
      <path id="Path_4" data-name="Path 4" d="M145.84,19.18H130.36a.5.5,0,0,1,0-1h15.48a.5.5,0,0,1,0,1Z" fill="#f0a901"/>
      <path id="Path_5" data-name="Path 5" d="M138.41,25.4h-8.04a.5.5,0,0,1,0-1h8.04a.5.5,0,0,1,.5.5A.5.5,0,0,1,138.41,25.4Z" fill="#f0a901"/>
    </g>
    <path id="Path_6" data-name="Path 6" d="M166.15,0H126.94a4.628,4.628,0,0,0-4.61,4.63V32.98a4.618,4.618,0,0,0,4.61,4.61h27.61c.06.06.1.13.16.19a5.035,5.035,0,0,0,2.54,1.35l-1.9,9.88,5.22-2.74a.785.785,0,0,1,.73,0l5.23,2.74L164.59,39a4.979,4.979,0,0,0,2.09-1.22,3.219,3.219,0,0,0,.24-.28,4.615,4.615,0,0,0,3.85-4.53V4.63A4.631,4.631,0,0,0,166.15,0Zm-.38,32.17a3.731,3.731,0,0,1-.5,4.19,3.731,3.731,0,0,1-4.19.5l-.38-.16-.38.16a3.731,3.731,0,0,1-4.19-.5,3.731,3.731,0,0,1-.5-4.19l.16-.38-.16-.38a3.731,3.731,0,0,1,.5-4.19,3.728,3.728,0,0,1,4.19-.5l.38.16.38-.16a3.731,3.731,0,0,1,4.19.5,3.731,3.731,0,0,1,.5,4.19l-.16.38Zm3,.8a2.609,2.609,0,0,1-.65,1.71,6.515,6.515,0,0,0-.36-2.89,5.6,5.6,0,0,0-1.08-5.98,5.645,5.645,0,0,0-5.99-1.08,5.332,5.332,0,0,0-7.07,7.06,6.232,6.232,0,0,0-.18,3.8H126.93a2.612,2.612,0,0,1-2.61-2.61V4.63A2.623,2.623,0,0,1,126.93,2h39.21a2.623,2.623,0,0,1,2.61,2.63V32.97Z" fill="#f0a901"/>
    <rect id="Rectangle_1" data-name="Rectangle 1" width="0.4" height="2" transform="translate(160.5 36.85)" fill="#f0a901"/>
  </g>
</svg>
