<svg xmlns="http://www.w3.org/2000/svg" width="48.82" height="50" viewBox="0 0 48.82 50">
  <g id="Group_14" data-name="Group 14" transform="translate(-355.77 -256.55)">
    <path id="Path_35" data-name="Path 35" d="M356.77,306.55a1,1,0,0,1-1-1V285.3a11.862,11.862,0,0,1,11.85-11.85h19.35v-15.9a1,1,0,1,1,2,0v16.9a1,1,0,0,1-1,1H367.62a9.863,9.863,0,0,0-9.85,9.85v20.25A1,1,0,0,1,356.77,306.55Z" fill="#053fa5"/>
    <path id="Path_36" data-name="Path 36" d="M364.65,306.55a1,1,0,0,1-1-1V304.1a1,1,0,0,1,2,0v1.45A1,1,0,0,1,364.65,306.55Zm0-7.45a1,1,0,0,1-1-1v-3a1,1,0,0,1,2,0v3A1,1,0,0,1,364.65,299.1Zm0-9a1,1,0,0,1-1-1v-3.02a1.006,1.006,0,0,1,1-.98h.02a1,1,0,0,1,.98,1.02v2.98A1,1,0,0,1,364.65,290.1Zm3.74-7.03a1,1,0,0,1-.1-1.99,4.935,4.935,0,0,1,.55-.03h2.55a1,1,0,0,1,0,2h-2.55c-.11,0-.23.01-.34.02Zm21-.02h-3a1,1,0,0,1,0-2h3a1,1,0,0,1,0,2Zm-9,0h-3a1,1,0,0,1,0-2h3a1,1,0,0,1,0,2Zm14.53-1.55a1,1,0,0,1-.78-1.63,3.124,3.124,0,0,0,.71-2.01v-.14a1,1,0,0,1,2,0v.14a5.184,5.184,0,0,1-1.16,3.27A.956.956,0,0,1,394.92,281.5Zm.94-8.78a1,1,0,0,1-1-1v-3a1,1,0,0,1,2,0v3A1,1,0,0,1,395.86,272.72Zm0-9a1,1,0,0,1-1-1v-3a1,1,0,0,1,2,0v3A1,1,0,0,1,395.86,263.72Z" fill="#053fa5"/>
    <path id="Path_37" data-name="Path 37" d="M372.38,306.55a1,1,0,0,1-1-1v-15.9a1,1,0,0,1,1-1h20.35a9.874,9.874,0,0,0,9.86-9.86V257.55a1,1,0,0,1,2,0v21.24a11.873,11.873,0,0,1-11.86,11.86H373.38v14.9A1,1,0,0,1,372.38,306.55Z" fill="#053fa5"/>
  </g>
</svg>
