<svg xmlns="http://www.w3.org/2000/svg" width="48.529" height="48.991" viewBox="0 0 48.529 48.991">
  <g id="Group_4" data-name="Group 4" transform="translate(-238.88)">
    <path id="Path_7" data-name="Path 7" d="M258.37,17.24a4.287,4.287,0,1,0-4.3-.02,8,8,0,0,0-5.8,7.65.5.5,0,0,0,.5.5H263.6a.5.5,0,0,0,.5-.5A8,8,0,0,0,258.37,17.24Zm-5.42-3.7a3.29,3.29,0,1,1,3.29,3.29A3.293,3.293,0,0,1,252.95,13.54Zm-3.66,10.83a6.993,6.993,0,0,1,6.85-6.46h.09a6.993,6.993,0,0,1,6.85,6.46H249.29Z" fill="#f0a901"/>
    <path id="Path_8" data-name="Path 8" d="M286.17,42.91l-7.9-6.89a1.918,1.918,0,0,0-2.42-.1l-6.93-6.93a17.221,17.221,0,1,0-1.42,1.39l6.93,6.93a1.9,1.9,0,0,0,0,2.54l6.89,7.9c1.13,1.3,2.87,1.65,3.81.71l1.74-1.74C287.82,45.78,287.47,44.04,286.17,42.91ZM256.19,32.62A15.31,15.31,0,1,1,271.5,17.31,15.33,15.33,0,0,1,256.19,32.62Z" fill="#f0a901"/>
  </g>
</svg>
