<svg xmlns="http://www.w3.org/2000/svg" width="38.634" height="49.15" viewBox="0 0 38.634 49.15">
  <g id="Group_12" data-name="Group 12" transform="translate(-10.127 -254.98)">
    <path id="Path_25" data-name="Path 25" d="M20.49,291.01a2.48,2.48,0,1,0-2.48-2.48A2.48,2.48,0,0,0,20.49,291.01Z" fill="#053fa5"/>
    <circle id="Ellipse_2" data-name="Ellipse 2" cx="2.48" cy="2.48" r="2.48" transform="translate(35.93 286.06)" fill="#053fa5"/>
    <path id="Path_26" data-name="Path 26" d="M22.41,279.83H36.49a2.748,2.748,0,0,0,2.75-2.75v-8.42a2.748,2.748,0,0,0-2.75-2.75H22.41a2.748,2.748,0,0,0-2.75,2.75v8.42A2.755,2.755,0,0,0,22.41,279.83Zm-1.75-11.17a1.752,1.752,0,0,1,1.75-1.75H36.49a1.752,1.752,0,0,1,1.75,1.75v8.42a1.752,1.752,0,0,1-1.75,1.75H22.41a1.752,1.752,0,0,1-1.75-1.75Z" fill="#053fa5"/>
    <path id="Path_27" data-name="Path 27" d="M33.15,288.03H25.74a.5.5,0,1,0,0,1h7.41a.5.5,0,0,0,0-1Z" fill="#053fa5"/>
    <path id="Path_28" data-name="Path 28" d="M48.47,302.43l-5.25-5.25a3.7,3.7,0,0,0,1.67-1.03,3.775,3.775,0,0,0,.97-2.85l-2.49-28.62a3.718,3.718,0,0,0-3.72-3.41h-9.2v-4.3h5.06l2.56,2.57a1,1,0,1,0,1.41-1.41l-2.86-2.86a.99.99,0,0,0-.71-.29H22.97a1.033,1.033,0,0,0-.71.29l-2.86,2.86a1,1,0,0,0,0,1.41.982.982,0,0,0,.71.29,1.024,1.024,0,0,0,.71-.29l2.56-2.57h5.06v4.3h-9.2a3.71,3.71,0,0,0-3.72,3.41L13.03,293.3a3.736,3.736,0,0,0,.97,2.85,3.824,3.824,0,0,0,1.67,1.03l-5.25,5.25a1,1,0,0,0,0,1.41.982.982,0,0,0,.71.29,1.024,1.024,0,0,0,.71-.29l2.56-2.56H44.48l2.56,2.56a.982.982,0,0,0,.71.29,1.024,1.024,0,0,0,.71-.29A.987.987,0,0,0,48.47,302.43Zm-33.43-8.94,2.49-28.62a1.722,1.722,0,0,1,1.72-1.58h20.4a1.715,1.715,0,0,1,1.72,1.58l2.49,28.62a1.731,1.731,0,0,1-1.73,1.88H16.76a1.742,1.742,0,0,1-1.28-.56A1.772,1.772,0,0,1,15.04,293.49Zm1.37,5.79,1.92-1.92H40.58l1.92,1.92Z" fill="#053fa5"/>
  </g>
</svg>
