<svg xmlns="http://www.w3.org/2000/svg" width="45.27" height="50" viewBox="0 0 45.27 50">
  <g id="Group_11" data-name="Group 11" transform="translate(-123.92 -254.14)">
    <path id="Path_21" data-name="Path 21" d="M150.91,281.69l1.6,2.77a.737.737,0,0,1-.64,1.1h-1.6l.03-.05a.886.886,0,0,0-1.42-1.06l-1.08,1.46a.885.885,0,0,0,0,1.05l1.07,1.46a.863.863,0,0,0,.71.36.921.921,0,0,0,.52-.17.891.891,0,0,0,.19-1.24l-.04-.05h1.62a2.5,2.5,0,0,0,2.17-3.75l-1.6-2.77a.883.883,0,0,0-1.21-.32A.894.894,0,0,0,150.91,281.69Z" fill="#053fa5"/>
    <path id="Path_22" data-name="Path 22" d="M139.05,286.08a2.478,2.478,0,0,0,2.17,1.25h3.42a.885.885,0,1,0,0-1.77h-3.42a.741.741,0,0,1-.64-1.1l.83-1.43.02.04a.88.88,0,1,0,1.62-.69l-.71-1.66a.9.9,0,0,0-.91-.53l-1.81.19a.885.885,0,0,0,.18,1.76l.08-.01-.84,1.46A2.489,2.489,0,0,0,139.05,286.08Z" fill="#053fa5"/>
    <path id="Path_23" data-name="Path 23" d="M143,278.5a.894.894,0,0,0,1.21-.32l1.7-2.94a.74.74,0,0,1,1.27,0l.86,1.49a.888.888,0,0,0-.23,1.76l1.78.29a.9.9,0,0,0,.94-.49l.81-1.62a.888.888,0,1,0-1.59-.79l-.08.15-.97-1.68a2.529,2.529,0,0,0-4.34,0l-1.7,2.94A.914.914,0,0,0,143,278.5Z" fill="#053fa5"/>
    <path id="Path_24" data-name="Path 24" d="M165.95,259.56h-9.37v-2.98a2.443,2.443,0,0,0-2.44-2.44H138.96a2.443,2.443,0,0,0-2.44,2.44v2.98h-9.37a3.235,3.235,0,0,0-3.23,3.23v2.3a1,1,0,0,0,1,1h2.35l4.23,29.39a4.826,4.826,0,0,0,4.75,4.11h.28v3.55a1,1,0,0,0,1,1h18.05a1,1,0,0,0,1-1v-3.55h.28a4.826,4.826,0,0,0,4.75-4.11l4.23-29.39h2.35a1,1,0,0,0,1-1v-2.3A3.244,3.244,0,0,0,165.95,259.56Zm-27.43-2.98a.444.444,0,0,1,.44-.44h15.18a.444.444,0,0,1,.44.44v2.98H138.53v-2.98Zm16.05,45.56H138.52v-2.55h16.05Zm5.05-6.95a2.815,2.815,0,0,1-2.77,2.4H136.24a2.815,2.815,0,0,1-2.77-2.4l-4.19-29.1H163.8Z" fill="#053fa5"/>
  </g>
</svg>
