<svg xmlns="http://www.w3.org/2000/svg" width="57.23" height="50.008" viewBox="0 0 57.23 50.008">
  <g id="Group_5" data-name="Group 5" transform="translate(-352.12 -0.002)">
    <path id="Path_9" data-name="Path 9" d="M408.35,21.36h-6.51a1,1,0,0,0,0,2h6.51a1,1,0,0,0,0-2Z" fill="#f0a901"/>
    <path id="Path_10" data-name="Path 10" d="M399.45,15.32a1.008,1.008,0,0,0,.7-.28l4.66-4.54a1,1,0,0,0-1.39-1.43l-4.66,4.54a1,1,0,0,0-.02,1.41A.976.976,0,0,0,399.45,15.32Z" fill="#f0a901"/>
    <path id="Path_11" data-name="Path 11" d="M400.15,29.68a1,1,0,0,0-1.39,1.43l4.66,4.54a.991.991,0,0,0,.7.28,1.015,1.015,0,0,0,.72-.3,1,1,0,0,0-.02-1.41Z" fill="#f0a901"/>
    <path id="Path_12" data-name="Path 12" d="M391.45,13.83a8.65,8.65,0,0,0-1.39-.53V1a.984.984,0,0,0-.53-.88,1,1,0,0,0-1.03.05L371.87,11.19H361.29a1,1,0,0,0-1,1v2.56h-4.87a3.3,3.3,0,0,0-3.3,3.3v8.63a3.3,3.3,0,0,0,3.3,3.3h4.87v2.67a1,1,0,0,0,.3.71,1.091,1.091,0,0,0,.71.29l1.62-.02-6.48,10.08a1,1,0,0,0,.3,1.38l7.4,4.76a1.032,1.032,0,0,0,.54.16,1.491,1.491,0,0,0,.21-.02.985.985,0,0,0,.63-.44l9.11-14.18,13.87,9.19a1.016,1.016,0,0,0,.55.17.967.967,0,0,0,.47-.12.984.984,0,0,0,.53-.88V31.41a9.665,9.665,0,0,0,1.39-.52,9.464,9.464,0,0,0,.01-17.06ZM360.27,27.97h-4.84a1.3,1.3,0,0,1-1.3-1.3V18.04a1.3,1.3,0,0,1,1.3-1.3h4.84Zm2.02-14.78h9.38V31.54l-9.38.09Zm2.1,34.43-5.71-3.67,6.65-10.34,6.46-.06,1.17.75Zm23.67-5.76L372.73,31.7c-.02-.01-.04-.01-.05-.02V13.05c.02-.01.04-.01.05-.02L388.06,2.87Z" fill="#f0a901"/>
  </g>
</svg>
