<svg xmlns="http://www.w3.org/2000/svg" width="40.12" height="48.649" viewBox="0 0 40.12 48.649">
  <g id="Group_9" data-name="Group 9" transform="translate(-353.78 -124.631)">
    <path id="Path_17" data-name="Path 17" d="M376.81,173.28a17.1,17.1,0,0,1-17.08-17.08c0-8.09,12.01-25.2,15.69-30.25a1.791,1.791,0,0,1,2.79,0c3.68,5.05,15.69,22.16,15.69,30.25A17.112,17.112,0,0,1,376.81,173.28Zm0-44.86c-6.85,9.53-14.5,22.15-14.5,27.78a14.5,14.5,0,0,0,29,0C391.31,150.57,383.66,137.95,376.81,128.42Z" fill="#053fa5"/>
    <path id="Path_18" data-name="Path 18" d="M359.28,139.24a5.5,5.5,0,0,1-5.5-5.5c0-2.08,2.3-5.77,4.23-8.49a1.613,1.613,0,0,1,2.54,0c1.93,2.73,4.23,6.42,4.23,8.49A5.51,5.51,0,0,1,359.28,139.24Zm0-12.32c-2.14,3.1-3.5,5.74-3.5,6.82a3.5,3.5,0,0,0,7,0C362.78,132.66,361.42,130.02,359.28,126.92Z" fill="#053fa5"/>
    <g id="Group_8" data-name="Group 8">
      <path id="Path_19" data-name="Path 19" d="M371.99,152.99l-1.29-.41a7.268,7.268,0,0,1,11.95-.53.648.648,0,0,0,.9.13.641.641,0,0,0,.13-.9,8.561,8.561,0,0,0-14.25.89l-1.42-.46a.568.568,0,0,0-.73.66l.89,4.08a.566.566,0,0,0,.94.3l3.09-2.81A.556.556,0,0,0,371.99,152.99Z" fill="#053fa5"/>
      <path id="Path_20" data-name="Path 20" d="M385.65,156.8a.571.571,0,0,0-.92-.35l-3.23,2.66a.566.566,0,0,0,.16.97l1.23.46a7.271,7.271,0,0,1-11.83.34.632.632,0,0,0-.9-.13.641.641,0,0,0-.13.9,8.558,8.558,0,0,0,6.83,3.4c.2,0,.39-.01.59-.02a8.6,8.6,0,0,0,6.68-4.02l1.45.54a.57.57,0,0,0,.76-.63Z" fill="#053fa5"/>
    </g>
  </g>
</svg>
