<svg xmlns="http://www.w3.org/2000/svg" width="56.253" height="49.498" viewBox="0 0 56.253 49.498">
  <g id="Group_13" data-name="Group 13" transform="translate(-235.011 -254.642)">
    <path id="Path_29" data-name="Path 29" d="M273.33,304.14a9.793,9.793,0,0,1-6.17-2.15c-1.56-1.24-6.43-2.76-10.61-1.38l-.58.19c-2.39.8-4.87,1.62-7.76,1.12a13.031,13.031,0,0,1-10.66-14.46,5.987,5.987,0,0,0-.79-4.14,9.948,9.948,0,1,1,17-10.27,5.55,5.55,0,0,0,5.27,3.06c.57-.05,1.07-.08,1.47-.08a11.908,11.908,0,0,1,10.24,5.76,5.517,5.517,0,0,0,3.95,2.55,9.432,9.432,0,0,1,2.05.55,10.679,10.679,0,0,1,6.53,9.6A9.893,9.893,0,0,1,273.33,304.14Zm-13.23-6.06a14.806,14.806,0,0,1,8.3,2.34,7.946,7.946,0,0,0,12.88-5.98,8.689,8.689,0,0,0-5.26-7.68h0a7.213,7.213,0,0,0-1.62-.44,7.576,7.576,0,0,1-5.36-3.49,9.91,9.91,0,0,0-8.53-4.8c-.35,0-.8.03-1.3.07a7.51,7.51,0,0,1-7.21-4.12,7.95,7.95,0,1,0-13.59,8.2,7.862,7.862,0,0,1,1.13,5.52,11.035,11.035,0,0,0,9.01,12.24c2.4.41,4.53-.3,6.78-1.05l.58-.19A13.947,13.947,0,0,1,260.1,298.08Z" fill="#053fa5"/>
    <path id="Path_30" data-name="Path 30" d="M263.86,287.9a.5.5,0,0,1-.5-.5c0-1.79-3.25-3.29-7.09-3.29a.5.5,0,1,1,0-1c4.54,0,8.09,1.89,8.09,4.29A.5.5,0,0,1,263.86,287.9Z" fill="#053fa5"/>
    <path id="Path_31" data-name="Path 31" d="M275.63,297.14a.5.5,0,0,1-.5-.5c0-1.79-3.25-3.29-7.09-3.29a.5.5,0,0,1,0-1c4.54,0,8.09,1.89,8.09,4.29A.5.5,0,0,1,275.63,297.14Z" fill="#053fa5"/>
    <path id="Path_32" data-name="Path 32" d="M253.38,291.69a.5.5,0,0,1-.5-.5c0-1.79-3.25-3.29-7.09-3.29a.5.5,0,1,1,0-1c4.54,0,8.09,1.89,8.09,4.29A.5.5,0,0,1,253.38,291.69Z" fill="#053fa5"/>
    <path id="Path_33" data-name="Path 33" d="M248.81,280.02a.5.5,0,0,1-.5-.5c0-1.79-3.25-3.29-7.09-3.29a.5.5,0,0,1,0-1c4.54,0,8.09,1.89,8.09,4.29A.5.5,0,0,1,248.81,280.02Z" fill="#053fa5"/>
    <path id="Path_34" data-name="Path 34" d="M291.01,282.42l-19.65-19.65,1-1a1.473,1.473,0,0,0,0-2.09l-.07-.07a22.449,22.449,0,0,1,6.81-3.72.5.5,0,0,0-.04-.97,18.567,18.567,0,0,0-10.33,1.14l-.35-.35a1.473,1.473,0,0,0-2.09,0l-3.98,3.98a1.473,1.473,0,0,0,0,2.09l.42.42a19.819,19.819,0,0,0-1.21,10.24.5.5,0,0,0,.44.41h.05a.484.484,0,0,0,.46-.32,22.015,22.015,0,0,1,3.89-6.74,1.472,1.472,0,0,0,2.02-.05l1-1,19.65,19.65a.887.887,0,0,0,1.26,0l.71-.71A.9.9,0,0,0,291.01,282.42Zm-15.22-26.77c.37,0,.72.01,1.04.03a24.8,24.8,0,0,0-5.27,3.22l-2.08-2.08A16.533,16.533,0,0,1,275.79,255.65Zm-13.45,14.63a18.591,18.591,0,0,1,1.16-7.32l2.14,2.14A21.836,21.836,0,0,0,262.34,270.28Z" fill="#053fa5"/>
  </g>
</svg>
